<svg xmlns="http://www.w3.org/2000/svg" width="234.847" height="70" viewBox="0 0 234.847 70"><g transform="translate(-722 -1466.9)"><g transform="translate(795.086 1484.774)"><path d="M-189.145-12.712V-15.12h1.567V-8.9h-1.567v-2.506h-3.008V-8.9h-1.567V-15.12h1.567v2.408Zm12.381.7a3.212,3.212,0,0,1-.409,1.607,2.959,2.959,0,0,1-1.193,1.153,3.829,3.829,0,0,1-1.86.427,3.765,3.765,0,0,1-1.86-.432,2.941,2.941,0,0,1-1.175-1.157,3.233,3.233,0,0,1-.4-1.589,3.347,3.347,0,0,1,.374-1.551,2.933,2.933,0,0,1,1.153-1.188A3.748,3.748,0,0,1-180.2-15.2a3.81,3.81,0,0,1,1.829.418,2.929,2.929,0,0,1,1.193,1.148A3.235,3.235,0,0,1-176.764-12.009Zm-5.292.009a1.9,1.9,0,0,0,.231.941,1.6,1.6,0,0,0,.65.643,1.955,1.955,0,0,0,.948.227,1.866,1.866,0,0,0,1.346-.492,1.763,1.763,0,0,0,.514-1.337,1.918,1.918,0,0,0-.218-.908,1.647,1.647,0,0,0-.639-.661,1.929,1.929,0,0,0-.995-.247,1.981,1.981,0,0,0-.975.231,1.576,1.576,0,0,0-.641.648A1.993,1.993,0,0,0-182.056-12Zm12.964-2.71v1.331a2.814,2.814,0,0,0-1.722-.69.871.871,0,0,0-.552.149.484.484,0,0,0-.187.4.554.554,0,0,0,.191.409,3.416,3.416,0,0,0,.748.463,8.641,8.641,0,0,1,.981.572,2.1,2.1,0,0,1,.579.6,1.566,1.566,0,0,1,.22.852,1.666,1.666,0,0,1-.274.948,1.771,1.771,0,0,1-.77.632A2.73,2.73,0,0,1-171-8.823a4.443,4.443,0,0,1-2.02-.516v-1.406a2.942,2.942,0,0,0,1.82.748.943.943,0,0,0,.6-.162.5.5,0,0,0,.2-.4.575.575,0,0,0-.076-.3,1.13,1.13,0,0,0-.314-.3,5.23,5.23,0,0,0-.732-.4,6.715,6.715,0,0,1-.772-.461,2.044,2.044,0,0,1-.547-.587,1.587,1.587,0,0,1-.229-.866,1.609,1.609,0,0,1,.247-.877,1.686,1.686,0,0,1,.721-.619,2.612,2.612,0,0,1,1.137-.227,3.908,3.908,0,0,1,1.012.131A3.3,3.3,0,0,1-169.091-14.711Zm8.763,2V-15.12h1.567V-8.9h-1.567v-2.506h-3.008V-8.9H-164.9V-15.12h1.567v2.408Zm5.759,3.81V-15.12H-153V-8.9Zm9.676-6.217h1.749l-2.421,2.919,2.879,3.3h-1.954l-2.6-3.017V-8.9h-1.567V-15.12h1.567v2.862ZM-134.381-8.9l-.6-1.433h-2.67l-.6,1.433h-1.6l2.706-6.226h1.633l2.733,6.226Zm-1.94-4.7-.921,2.261h1.847Zm10.988-1.522h1.749l-2.421,2.919,2.879,3.3h-1.954l-2.6-3.017V-8.9h-1.567V-15.12h1.567v2.862Zm7.277,1.113v1.366h2.568v1.113h-2.568v1.513h2.759V-8.9h-4.326V-15.12h4.255v1.113Zm17.081,5.1-.6-1.433h-2.67l-.6,1.433h-1.6l2.706-6.226h1.633L-99.373-8.9Zm-1.94-4.7-.921,2.261h1.847Zm11.554,4.557a4.555,4.555,0,0,0,1.949.538,1.172,1.172,0,0,0,.294-.036l.036.071-1.166,1.095a8.763,8.763,0,0,1-2.083-.665,8.525,8.525,0,0,1-1.762-1.021,3.032,3.032,0,0,1-1.5-1.162A3.156,3.156,0,0,1-96.119-12a3.307,3.307,0,0,1,.387-1.578,2.932,2.932,0,0,1,1.17-1.175,3.785,3.785,0,0,1,1.9-.447,3.771,3.771,0,0,1,1.856.432,2.934,2.934,0,0,1,1.179,1.157,3.241,3.241,0,0,1,.4,1.593,3.116,3.116,0,0,1-.57,1.849A3,3,0,0,1-91.362-9.041Zm-1.313-1.148a2.026,2.026,0,0,0,.977-.227,1.573,1.573,0,0,0,.648-.643,1.952,1.952,0,0,0,.227-.95,1.988,1.988,0,0,0-.214-.926,1.581,1.581,0,0,0-.639-.656,2,2,0,0,0-1.008-.243,1.93,1.93,0,0,0-.979.238,1.6,1.6,0,0,0-.632.652,1.993,1.993,0,0,0-.218.943,1.908,1.908,0,0,0,.227.937,1.612,1.612,0,0,0,.645.643A1.962,1.962,0,0,0-92.675-10.189Zm10.4.036a1.512,1.512,0,0,0,1.117-.387,1.618,1.618,0,0,0,.387-1.188V-15.12H-79.2v3.427a2.748,2.748,0,0,1-.808,2.125,3.219,3.219,0,0,1-2.268.745,3.224,3.224,0,0,1-2.285-.75,2.724,2.724,0,0,1-.8-2.094V-15.12H-83.8v3.373a1.653,1.653,0,0,0,.389,1.184A1.49,1.49,0,0,0-82.278-10.153ZM-70.271-8.9l-.6-1.433h-2.67l-.6,1.433h-1.6l2.706-6.226H-71.4L-68.668-8.9Zm-1.94-4.7-.921,2.261h1.847Zm11.883.356a1.652,1.652,0,0,1-.256.917,1.7,1.7,0,0,1-.768.623,1.739,1.739,0,0,1,.507.429,5.645,5.645,0,0,1,.507.8l.81,1.567H-61.24l-.721-1.4a3.624,3.624,0,0,0-.432-.708,1.074,1.074,0,0,0-.4-.314,1.33,1.33,0,0,0-.5-.082h-.28V-8.9h-1.567V-15.12h2.586a2.392,2.392,0,0,1,1.647.516A1.737,1.737,0,0,1-60.328-13.242Zm-1.6.018q0-.828-.966-.828h-.681v1.629h.654a1.294,1.294,0,0,0,.739-.176A.708.708,0,0,0-61.926-13.224ZM-55.944-8.9V-15.12h1.567V-8.9Zm8.781-1.251a1.512,1.512,0,0,0,1.117-.387,1.618,1.618,0,0,0,.387-1.188V-15.12h1.571v3.427A2.748,2.748,0,0,1-44.9-9.568a3.219,3.219,0,0,1-2.268.745,3.224,3.224,0,0,1-2.285-.75,2.724,2.724,0,0,1-.8-2.094V-15.12h1.567v3.373a1.653,1.653,0,0,0,.389,1.184A1.49,1.49,0,0,0-47.163-10.153Zm12.537-4.967h1.42V-8.9h-1.567v-3.974L-36.522-10.7h-.147l-1.758-2.181V-8.9h-1.531V-15.12h1.429l1.949,2.4Z" transform="translate(193.72 48.616)" fill="#173061"/><path d="M-172.46-34.413c.709,0,1.39.052,2.1.052.794,0,2.355-.026,2.355-1.031,0-.541-.482-.851-1.05-.851-1.135,0-2.27.129-3.4.129-2.241.026-4.454.026-6.7.026v-3.068h6.838a.846.846,0,0,0,.936-.877c0-.438-.482-.67-.908-.67h-6.866V-43h7.178c.766,0,2.326-.026,2.326-.98a.9.9,0,0,0-.993-.8c-2.043,0-4.057.1-6.1.18-.766.026-1.56.052-2.383.052,0-.567,0-1.109.028-1.624,0-.258.028-.619.028-.98h6.185a1.361,1.361,0,0,0,1.362-1.238V-55.66c0-.67-.426-.8-1.078-.8l-11.746-.026a.838.838,0,0,0-.851.9.875.875,0,0,0,.965.8c.567,0,1.305-.026,1.873-.026h8.88c.028.361.028.49.028,3.068,0,1.031,0,2.037-.057,3.068h-13.051v-2.295h10.781a.8.8,0,0,0,.851-.774.787.787,0,0,0-.794-.8h-10.838v-3.79c0-.413-.312-.645-.766-.645a1.535,1.535,0,0,0-1.419,1.47c0,.361.454.645.454.748v5.75c0,.387-.284.774-.284,1.238,0,.748.993.8,1.589.8.284,0,.567-.052.851-.077.255-.026,1.532-.129,2.894-.129.738,0,1.475.026,2.213.026.085.7.142,1.65.142,2.011v.619c-1.9,0-3.83-.026-5.674-.026a3.06,3.06,0,0,0-2.724-2.295c-.624,0-1.163.232-1.163.851a.745.745,0,0,0,.17.49c.284.232,1.929.7,1.929,1.031,0,.7-1.106,1.341-3.234,2.475-.227.129-.511.206-.738.335a.559.559,0,0,0-.255.516.76.76,0,0,0,.766.851c1.419,0,4.256-2.166,4.71-2.682,2.071,0,4.142-.026,6.213-.026v2.321h-5.986c-.624,0-1.362.129-1.362.722a.836.836,0,0,0,.936.825h6.412v3.043h-10.7a.842.842,0,0,0-.908.825c0,.593.653.851,1.22.851Zm35.408-.077c1.532,0,2.553-.129,3.32-1.444a1.3,1.3,0,0,0,.17-.645.72.72,0,0,0-.227-.619,1.444,1.444,0,0,0-.794-.335c-.4,0-.88.413-.88.619-.4.593-.567.851-2.639.851-.511,0-.936-.026-1.192-.026h-1.759c-.653,0-1.277,0-1.929-.026-.142,0-.567-.026-.567-.232v-1.6a.936.936,0,0,0,.624.206,2.767,2.767,0,0,0,1.844-1.16,22.627,22.627,0,0,0,2.837-4.693c.709,1.006,1.419,2.037,2.128,3.043a1.711,1.711,0,0,0,1.135.774.791.791,0,0,0,.766-.748,1.952,1.952,0,0,0-.227-.645c-.539-.825-1.305-1.753-1.9-2.578-.4-.567-.794-1.109-1.192-1.676a71.151,71.151,0,0,0,1.674-7.091c0-.077.028-.155.028-.232,0-.567-.227-.9-.908-.9-.624,0-.794.413-.851.877a29.649,29.649,0,0,1-1.078,5.75c-.681-.98-1.305-1.96-1.929-2.965-.17-.284-.539-.825-.936-.825a.778.778,0,0,0-.709.851c0,.541.4,1.392,2.951,4.9-.34.9-1.9,4.847-3.972,5.724a1.1,1.1,0,0,0-.284.206V-49.317l.057-5.26c0-.284.284-.284.511-.284h8.058c.567,0,1.248-.284,1.248-.877a.99.99,0,0,0-1.021-.9c-.4,0-.823.026-1.22.052-1.589.077-3.121.206-4.71.206-.709,0-1.39-.026-2.1-.026s-1.419-.129-2.128-.129a.994.994,0,0,0-.965.877c0,.516.681.722.681,2.011v14.671c0,.516-.085,2.6-.454,2.991-.2.232-.284.258-.4.516,0,.722.681.98,1.419.98Zm-15.292-1.083a11.4,11.4,0,0,1-2.185-2.527.541.541,0,0,0-.567-.309.729.729,0,0,0-.766.774c0,.567,2.043,3.043,2.7,3.481a1.311,1.311,0,0,0,.965.309,6.094,6.094,0,0,0,4.823-6.291c0-1.315.028-2.6.028-3.919,0-.541-.2-.877-.851-.877-.908,0-1.816.052-2.724.077,0-.9-.028-1.8-.028-2.707,1.986,0,2.61-.052,3.121-.541a.72.72,0,0,0,.142-.335c0-.67-.794-.722-1.333-.722h-1.929l.028-1.753a4.891,4.891,0,0,0,2.78-.49.582.582,0,0,0,.142-.361c0-.593-.794-.722-1.305-.722h-1.617v-2.656h1.787c.482,0,.993-.026,1.475-.026a.777.777,0,0,0,.794-.825.769.769,0,0,0-.653-.7c-.539,0-1.05.052-1.589.052-2.3.052-4.568.077-6.866.1a3.031,3.031,0,0,0-1.362-.387c-.113,0-1.362.206-1.362.98,0,1.057,1.447.258,1.447,2.037v3.687c0,1.135,0,2.321-.057,3.455q-.043.928-.17,1.856c-.028.284-.113.619-.113.9,0,1.109.511,1.238.738,1.238.709,0,1.135-.335,1.135-3.687v-8.689h3.234c.028.877.028,1.779.028,2.656-1.39,0-2.44.18-2.44.825,0,.67.766.722,2.071.722h.369c0,.593-.028,1.212-.028,1.8-1.333.077-1.929.1-2.241.49a.958.958,0,0,0-.142.361c0,.7.681.722,1.277.722h1.078c-.028.9-.085,1.831-.17,2.733h-1.5a.842.842,0,0,0-.908.954c0,.387.255.593.681.593,1.7,0,3.717-.026,5.419-.026,0,.541.057,1.109.057,1.65,0,1.779,0,3.481-1.333,4.925a4.458,4.458,0,0,1-1.816,1.16Zm1.589-4.77c.284-.077.4-.464.4-.7,0-.309-.369-.825-.738-.825-.34,0-2.837.645-3.263.748a23.058,23.058,0,0,1-2.951.645,3.487,3.487,0,0,0-1.39.258.692.692,0,0,0-.255.593c0,.7.6.877,1.248.877a17.586,17.586,0,0,0,2.979-.645C-153.395-39.725-152.089-40.009-150.756-40.344Zm43.409-9.179c6.128-2.4,7.008-3.043,7.008-3.739,0-.541-.511-.8-1.05-.8a.817.817,0,0,0-.426.129,39.91,39.91,0,0,1-6.072,2.836,1.6,1.6,0,0,0-.993-.464c-.454,0-.88.232-.88.67,0,1.109.936,3.043,1.333,4.177a25.777,25.777,0,0,0,7.292,11.371,1.569,1.569,0,0,0,1.107.593.913.913,0,0,0,.936-.9.794.794,0,0,0-.312-.619c-2.894-2.914-4.568-4.615-6.412-8.689A21.792,21.792,0,0,1-107.347-49.523Zm-5.9,11.345a7.771,7.771,0,0,1-.312,2.192.37.37,0,0,1-.34.129,5.919,5.919,0,0,1-2.553-1.16c-.2-.129-.369-.284-.567-.413a.783.783,0,0,0-.426-.077c-.539,0-.936.232-.936.774,0,1.289,3.6,2.785,4.852,2.785a2.3,2.3,0,0,0,2.3-2.372c0-3.919-.17-7.813-.17-11.732,0-.7,0-5.286.2-6.962a6.257,6.257,0,0,0,.085-.722c0-.438-.142-1.392-.794-1.392a7.44,7.44,0,0,0-2.3,1.109.726.726,0,0,0-.142.49c0,.541.511.877,1.106.928Zm-4.369-10.907a10.944,10.944,0,0,1-.142,2.4c-1.021,5.105-5.135,8.328-7.292,9.643a1.081,1.081,0,0,0-.624.877.9.9,0,0,0,.936.851c1.248,0,4.681-3.4,5.9-4.9A14.791,14.791,0,0,0-115.8-46.97c.057-.567.085-1.16.142-1.728a16.766,16.766,0,0,0,.17-1.676,1.177,1.177,0,0,0-1.163-.98c-.653,0-1.248.284-1.929.284-1.447,0-2.866-.18-4.284-.18-.653,0-1.5.387-1.5,1.057,0,.593.88.851,1.419.851,1.05,0,2.043-.1,3.093-.1.681,0,1.333.026,2.014.052h.227Zm50.956-2.6a.777.777,0,0,0,.766-.877.827.827,0,0,0-.794-.8c-1.7,0-3.121.1-4.823.1-1.135,0-2.3.026-3.433.026-.653,0-1.333,0-1.986-.026a5.092,5.092,0,0,0,.227-1.521c0-1.186-.312-2.6-1.9-2.6a.836.836,0,0,0-.851.774c0,.619.993,1.779.993,2.295,0,1.031-1.447,2.707-2.3,3.3-.284.206-.936.748-.936,1.109,0,.593.227.851.766.851.766,0,1.447-.438,2.951-2.321.085-.1.142-.206.227-.309Zm-.794,9.953c.653,0,1.759,0,1.759-.825a.708.708,0,0,0-.653-.748c-2.071,0-3.887.026-5.816.026-.028-.361-.028-.748-.028-1.109v-1.96h.88c.965,0,1.419.052,2.383.052,1.39,0,2.7-.077,2.7-.877,0-.438-.511-.748-.965-.748-2.213.052-3.944.129-6.157.129-.567,0-1.163-.026-1.731-.026h-.085a1.932,1.932,0,0,0,.057-.593c0-.9-.113-2.5-1.39-2.5a.931.931,0,0,0-.851.954c0,.49.312.748.482,1.135a.636.636,0,0,1,.057.284c0,.387-.624,1.109-1.7,1.779-.6.361-1.532.645-1.532,1.418,0,.413.113.748.653.748.709,0,2.156-1.006,3.064-1.753h2.383v3.068h-2.383c-.709,0-1.39-.1-2.1-.1-.567,0-1.589.18-1.589.851,0,.464.539.774,1.021.774h5.05c0,2.063-.17,2.5-3.688,5a18.308,18.308,0,0,1-1.929,1.238c-.369.206-.738.335-1.078.541a.641.641,0,0,0-.4.619.776.776,0,0,0,.794.7c1.05,0,6.724-3.61,7.547-5.286,1.419,1.7,6.072,5.08,7.348,5.08.426,0,.624-.335.624-.722,0-.335-.085-.593-1.589-1.5-1.7-1.031-4.795-2.914-5.9-4.667.028-.335.085-.67.085-.98Zm-15.207-2.785c0,2.6-.255,7.013-1.56,8.638a3.852,3.852,0,0,1-.794-.516c-.284-.232-1.05-.877-1.419-.877a.742.742,0,0,0-.794.722c0,.825,2.327,2.269,2.866,2.372a.861.861,0,0,0,.255.026c2.979,0,3.206-9.514,3.206-11.551,0-1.057-.227-1.547-1.475-1.547-.4,0-1.135.026-1.873.052h-.993c.057-.387.085-.748.113-1.109.057-1.057.057-2.114.113-3.2.6-.026,1.22-.026,1.816-.026.766,0,1.5.026,2.27.026a.916.916,0,0,0,.965-.877c0-.567-.681-.825-1.248-.825-1.078,0-2.128.206-3.206.232h-.454c0-.8-.028-1.6-.028-2.4,0-.438.057-.877.057-1.315,0-.387-.057-.851-.624-.851-.738,0-1.929.954-1.929,1.624,0,.464.511.748.908.98,0,.49.057,1.006.057,1.5a2.838,2.838,0,0,1-.028.49h-1.192c-1.021,0-1.674-.129-2.7-.18h-.284c-.653,0-1.333.1-1.333.851,0,.825.6.851,2.185.851h1.56c.426,0,.88-.026,1.305-.026a2.9,2.9,0,0,1,.142,1.006c0,4.976-1.333,8.457-3.6,12.583a20.591,20.591,0,0,1-1.192,1.8c-.511.748-.511.954-.511,1.289,0,.361.2.541.624.541.794,0,1.5-.954,1.844-1.5A32.355,32.355,0,0,0-85.5-45.784h1.929c.539,0,.766.129.851.335a.92.92,0,0,1,.057.413Zm42.955-10.288a24.863,24.863,0,0,1-4.114-.232,2.4,2.4,0,0,0-.426-.052c-.567,0-1.248.284-1.248.877,0,.464.369.645.369,1.444,0,.645-.17,1.263-.17,1.882,0,.567.142.954.823.954a.922.922,0,0,0,.936-1.031,21.617,21.617,0,0,1,.085-2.346c1.873,0,3.745-.052,5.618-.052,1.56,0,3.149.052,4.71.052a1.887,1.887,0,0,1,.057.748c0,.49-.057,1.006-.057,1.5,0,.464.142,1.057.794,1.057.965,0,1.021-.851,1.021-1.521a6.822,6.822,0,0,1,.312-2.4.351.351,0,0,0,.028-.18,1.093,1.093,0,0,0-1.163-1.109c-.6,0-1.7.309-2.5.335-.993.052-2.014.077-3.007.077v-2.063a.875.875,0,0,0-.908-.928c-.794,0-1.021.464-1.021,1.109,0,.335.17.877.17,1.367a3.186,3.186,0,0,1-.057.516Zm6.923,13.666a1.054,1.054,0,0,0-1.192-1.135,2.326,2.326,0,0,0-.567.155,3.76,3.76,0,0,1-1.56.206c-.766,0-1.56-.052-2.326-.052-1.135,0-1.731.129-1.731.9,0,.567.142.774,1.816.774.908,0,1.787-.052,2.7-.052.284,0,.6.026.88.026,0,.258.028.541.028.8,0,1.135,0,2.321-.113,3.455-1.248,0-2.468.077-3.717.077-.766,0-1.532-.077-2.3-.077H-41.1c0-2.707,0-5.389.028-8.1h2.724a21.389,21.389,0,0,1,2.326.052c.142,0,.227.026.369.026,1.39,0,1.617-.748,1.617-1.65,0-.387-.057-.825-.057-1.212a13.275,13.275,0,0,1,.2-2.6.965.965,0,0,0,.028-.284,1.137,1.137,0,0,0-1.248-1.109H-38.46c-1.05,0-1.674.077-1.674.748s.312.851,2.185.851c.709,0,1.419-.026,2.128-.026v1.006c0,.851,0,1.728-.057,2.578-1.163,0-2.355.077-3.518.077-.539,0-1.135,0-1.674-.026l.028-2.089c0-.7.085-1.392.085-2.089,0-.593-.255-1.16-1.021-1.16a1.057,1.057,0,0,0-.965,1.109v.206c0,.954.113,1.934.113,2.888,0,1.444.028,2.862.028,4.306,0,1.7-.057,5.054-.312,7.168v.155c0,.67.511.98,1.192.98.028,0,.085-.026.113-.026.567-.052,1.163-.077,1.731-.077.709,0,1.447-.026,2.156-.026.794,0,1.589,0,2.383.052.4.026.794.1,1.192.1,1.362,0,1.39-1.006,1.39-1.985,0-.361-.057-.748-.057-1.109,0-.851.028-1.728.113-2.578.028-.335.114-.722.114-1.057ZM-50.717-55.479c.851.851,3.376,3.171,4.2,3.171a.639.639,0,0,0,.709-.7.607.607,0,0,0-.2-.516,25.044,25.044,0,0,1-4.029-3.507,1.351,1.351,0,0,0-.936-.722.814.814,0,0,0-.851.722c0,.774-3.972,3.636-4.539,4.048-1.277.928-1.447,1.135-1.447,1.5,0,.49.17.645.709.645C-56.391-50.838-52.816-53.339-50.717-55.479ZM-53.185-36.94V-47a15.274,15.274,0,0,1,.085-2.321h5.022c0,.052.028.232.028,1.676v.284c-1.05,0-2.1-.026-3.149-.026-.653,0-1.05.206-1.05.825,0,.567.4.722.965.722h.653c.511,0,1.05-.026,1.56-.052h1.021c0,.67-.028,1.315-.028,1.985h-2.156c-1.589,0-2.043,0-2.043.774a.779.779,0,0,0,.709.748c.88,0,1.759-.052,2.639-.052a14.831,14.831,0,0,1,1.873.155h.113c.539,0,.709-.593.709-1.006,0-.309-.17-.645-.17-.954v-5c0-.258.227-.541.227-.825a1,1,0,0,0-.993-.9c-.681,0-1.362.232-2.071.232h-.709v-.645c0-.464.085-.954.085-1.418a.848.848,0,0,0-.794-.851c-.6,0-1.05.258-1.05.851,0,.464.113.928.113,1.392a5.508,5.508,0,0,1-.028.67c-.851,0-1.7-.026-2.61-.026-.681,0-1.333.052-1.333.825s.6.541.624,1.238c.028.335.057.9.057,4.074v3.455c0,1.547,0,3.352-.142,4.976-.426.18-.88.335-1.333.49-.369.129-1.05.361-1.05.825a.8.8,0,0,0,.823.825c.567,0,5.986-2.295,7.972-3.12.88,2.372.993,2.682,1.617,2.682a.826.826,0,0,0,.88-.774c0-.98-2.1-6.369-2.979-6.369-.482,0-.993.284-.993.774,0,.18.028.49.851,2.217-.227.1-.454.18-.653.284-.908.413-1.844.825-2.78,1.212Z" transform="translate(192.731 57.8)" fill="#173061"/></g><g transform="translate(722 1466.9)"><g transform="translate(0 35.08)"><path d="M-2070.145,121.65a45.566,45.566,0,0,1-12.01-1.567,38.531,38.531,0,0,1-5.241-1.838,32.077,32.077,0,0,1-4.567-2.435,25.405,25.405,0,0,1-3.768-2.951,19.477,19.477,0,0,1-2.845-3.387,15.253,15.253,0,0,1-1.8-3.743,13.3,13.3,0,0,1-.627-4.018,13.426,13.426,0,0,1,.972-4.983,2.557,2.557,0,0,1,2.628-1.761c.288.152.284.356.229.963,0,.551-.523,1.021-.532,1.879.52,4.679,3.317,9.077,8,12.471a33.474,33.474,0,0,0,19.555,5.868,33.476,33.476,0,0,0,19.555-5.868c5.223-3.784,8.1-8.816,8.1-14.168.51-.608-.055-.016.533-.325.289-.132,1.07-.631,1.7.94a13.422,13.422,0,0,1,.972,4.984,13.3,13.3,0,0,1-.627,4.018,15.28,15.28,0,0,1-1.8,3.743,19.5,19.5,0,0,1-2.845,3.387,25.4,25.4,0,0,1-3.768,2.951,32.081,32.081,0,0,1-4.566,2.435,38.529,38.529,0,0,1-5.241,1.838A45.565,45.565,0,0,1-2070.145,121.65Z" transform="translate(2101 -94.948)" fill="#fff"/><path d="M-2070.145,120.369a44.285,44.285,0,0,0,11.672-1.521,37.256,37.256,0,0,0,5.066-1.777,30.809,30.809,0,0,0,4.384-2.337,24.105,24.105,0,0,0,3.577-2.8,18.21,18.21,0,0,0,2.658-3.163,14,14,0,0,0,1.648-3.428,12.012,12.012,0,0,0,.567-3.631,12.072,12.072,0,0,0-.711-4.058c-.5,5.189-3.489,9.994-8.556,13.665a34.761,34.761,0,0,1-20.306,6.112,34.762,34.762,0,0,1-20.307-6.112c-4.936-3.576-7.963-8.323-8.532-13.522q0-.124.011-.24a12.1,12.1,0,0,0-.746,4.155,12.012,12.012,0,0,0,.567,3.631,13.991,13.991,0,0,0,1.648,3.428,18.2,18.2,0,0,0,2.658,3.162,24.117,24.117,0,0,0,3.577,2.8,30.85,30.85,0,0,0,4.384,2.337,37.3,37.3,0,0,0,5.067,1.777,44.285,44.285,0,0,0,11.672,1.521m0,1.281a45.566,45.566,0,0,1-12.01-1.567,38.532,38.532,0,0,1-5.241-1.838,32.078,32.078,0,0,1-4.567-2.435,25.406,25.406,0,0,1-3.768-2.951,19.477,19.477,0,0,1-2.845-3.387,15.253,15.253,0,0,1-1.8-3.743,13.3,13.3,0,0,1-.627-4.018,13.426,13.426,0,0,1,.972-4.983,2.557,2.557,0,0,1,2.628-1.761c.288.152.284.356.229.963,0,.551-.523,1.021-.532,1.879.52,4.679,3.317,9.077,8,12.471a33.474,33.474,0,0,0,19.555,5.868,33.476,33.476,0,0,0,19.555-5.868c5.223-3.784,8.1-8.816,8.1-14.168.389-.464.153-.229.28-.229a.662.662,0,0,0,.253-.1c.289-.132,1.07-.631,1.7.94a13.422,13.422,0,0,1,.972,4.984,13.3,13.3,0,0,1-.627,4.018,15.28,15.28,0,0,1-1.8,3.743,19.5,19.5,0,0,1-2.845,3.387,25.4,25.4,0,0,1-3.768,2.951,32.081,32.081,0,0,1-4.566,2.435,38.529,38.529,0,0,1-5.241,1.838A45.565,45.565,0,0,1-2070.145,121.65Z" transform="translate(2101 -94.948)" fill="#173061"/><path d="M-2070.145,121.65a45.565,45.565,0,0,0,12.01-1.567,38.526,38.526,0,0,0,5.241-1.838,32.074,32.074,0,0,0,4.566-2.435,25.393,25.393,0,0,0,3.768-2.951,19.488,19.488,0,0,0,2.845-3.387,15.272,15.272,0,0,0,1.8-3.743,13.3,13.3,0,0,0,.627-4.018,13.426,13.426,0,0,0-.971-4.983,2.557,2.557,0,0,0-2.628-1.761c-.287.152-.284.356-.229.963,0,.551.524,1.021.532,1.879-.52,4.679-3.318,9.077-8,12.471a33.476,33.476,0,0,1-19.555,5.868,33.474,33.474,0,0,1-19.555-5.868c-5.223-3.784-8.1-8.816-8.1-14.168-.51-.608.055-.016-.532-.325-.289-.132-1.07-.631-1.7.94a13.427,13.427,0,0,0-.972,4.984,13.3,13.3,0,0,0,.627,4.018,15.261,15.261,0,0,0,1.8,3.743,19.482,19.482,0,0,0,2.845,3.387,25.408,25.408,0,0,0,3.768,2.951,32.092,32.092,0,0,0,4.566,2.435,38.536,38.536,0,0,0,5.241,1.838A45.567,45.567,0,0,0-2070.145,121.65Z" transform="translate(2101 -94.948)" fill="#fff"/><path d="M-2070.145,120.369a44.285,44.285,0,0,0,11.672-1.521,37.229,37.229,0,0,0,5.066-1.777,30.8,30.8,0,0,0,4.384-2.336,24.108,24.108,0,0,0,3.577-2.8,18.2,18.2,0,0,0,2.658-3.163,14,14,0,0,0,1.648-3.428,12.019,12.019,0,0,0,.567-3.631,12.1,12.1,0,0,0-.764-4.206,4.444,4.444,0,0,1,.022.445c-.561,5.044-3.588,9.791-8.524,13.367a34.761,34.761,0,0,1-20.307,6.112,34.761,34.761,0,0,1-20.307-6.112c-5.067-3.671-8.061-8.476-8.556-13.665a12.071,12.071,0,0,0-.711,4.058,12.011,12.011,0,0,0,.567,3.631,13.989,13.989,0,0,0,1.648,3.428,18.224,18.224,0,0,0,2.658,3.163,24.125,24.125,0,0,0,3.577,2.8,30.866,30.866,0,0,0,4.384,2.337,37.284,37.284,0,0,0,5.067,1.777,44.286,44.286,0,0,0,11.672,1.521m0,1.281a45.568,45.568,0,0,1-12.01-1.567,38.535,38.535,0,0,1-5.241-1.838,32.092,32.092,0,0,1-4.566-2.435,25.407,25.407,0,0,1-3.768-2.951,19.482,19.482,0,0,1-2.845-3.387,15.261,15.261,0,0,1-1.8-3.743,13.3,13.3,0,0,1-.627-4.018,13.427,13.427,0,0,1,.972-4.984c.626-1.571,1.407-1.072,1.7-.94.365.192.285.037.295.037s.045.058.238.289c0,5.352,2.877,10.383,8.1,14.168a33.474,33.474,0,0,0,19.555,5.868,33.476,33.476,0,0,0,19.555-5.868c4.685-3.395,7.482-7.793,8-12.471-.009-.858-.532-1.328-.532-1.879-.054-.607-.058-.811.229-.963a2.557,2.557,0,0,1,2.628,1.761,13.426,13.426,0,0,1,.971,4.983,13.3,13.3,0,0,1-.627,4.018,15.272,15.272,0,0,1-1.8,3.743,19.487,19.487,0,0,1-2.845,3.387,25.393,25.393,0,0,1-3.768,2.951,32.072,32.072,0,0,1-4.566,2.435,38.526,38.526,0,0,1-5.241,1.838A45.565,45.565,0,0,1-2070.145,121.65Z" transform="translate(2101 -94.948)" fill="#173061"/></g><path d="M19.353,11.709a5,5,0,0,1,9.295,0l.8,2.016a5,5,0,0,0,4.268,3.141l2.367.18a5,5,0,0,1,2.9,8.756L36.96,27.567A5,5,0,0,0,35.38,32.5l.593,2.491A5,5,0,0,1,28.42,40.36l-1.732-1.1a5,5,0,0,0-5.377,0l-1.732,1.1a5,5,0,0,1-7.552-5.374L12.62,32.5a5,5,0,0,0-1.58-4.929L9.013,25.8a5,5,0,0,1,2.9-8.756l2.367-.18a5,5,0,0,0,4.268-3.141Z" transform="translate(6.743)" fill="#fff"/><path d="M28.955,11.453,24.389,23.04a2.792,2.792,0,0,1-2.37,1.75l-12.159.932,9.384,8.231a2.77,2.77,0,0,1,.871,2.725l-2.908,12.3L27.455,42.4a2.776,2.776,0,0,1,3,0L40.7,48.979,37.8,36.678a2.77,2.77,0,0,1,.871-2.725l9.384-8.231L35.892,24.79a2.792,2.792,0,0,1-2.37-1.75L28.955,11.453m0-2.815a1.051,1.051,0,0,1,.993.676l5.162,13.1a1.068,1.068,0,0,0,.912.673L49.7,24.135A1.068,1.068,0,0,1,50.322,26L39.794,35.237a1.068,1.068,0,0,0-.335,1.048l3.272,13.844a1.068,1.068,0,0,1-1.616,1.144l-11.583-7.44a1.068,1.068,0,0,0-1.154,0l-11.583,7.44a1.068,1.068,0,0,1-1.616-1.144l3.272-13.844a1.068,1.068,0,0,0-.335-1.048L7.588,26a1.068,1.068,0,0,1,.622-1.867l13.677-1.048a1.068,1.068,0,0,0,.912-.673l5.162-13.1A1.051,1.051,0,0,1,28.955,8.638Z" transform="translate(1.792 -6.708)" fill="#173061"/><path d="M1.514,16.452a2,2,0,0,1,3.971,0L6.73,26.76A2,2,0,0,1,4.744,29H2.256A2,2,0,0,1,.27,26.76Z" transform="translate(26.743 41)" fill="#fff"/><path d="M4.292,17.512,1.462,37.767h5.66L4.292,17.512m0-5.057a.415.415,0,0,1,.423.368L8.281,38.349a.427.427,0,0,1-.423.486H.726A.427.427,0,0,1,.3,38.349L3.869,12.823A.415.415,0,0,1,4.292,12.455Z" transform="translate(26.456 31.073)" fill="#173061"/><path d="M2.013,14.41a2,2,0,0,1,3.963,0l1.7,12.365a2,2,0,0,1-1.981,2.272h-3.4A2,2,0,0,1,.312,26.775Z" transform="translate(30.751 41.818) rotate(-20)" fill="#fff"/><path d="M3.931,5.13,1.162,25.272H6.7L3.931,5.13m0-5.13a.415.415,0,0,1,.423.369l3.5,25.486a.427.427,0,0,1-.423.485H.427A.427.427,0,0,1,0,25.854L3.508.369A.415.415,0,0,1,3.931,0Z" transform="translate(31.736 44.341) rotate(-20)" fill="#173061"/><path d="M2.013,14.41a2,2,0,0,1,3.963,0l1.7,12.365a2,2,0,0,1-1.981,2.272h-3.4A2,2,0,0,1,.312,26.775Z" transform="translate(23.245 39.086) rotate(20)" fill="#fff"/><path d="M3.931,5.13,1.162,25.272H6.7L3.931,5.13m0-5.13a.415.415,0,0,1,.423.369l3.5,25.486a.427.427,0,0,1-.423.485H.427A.427.427,0,0,1,0,25.854L3.508.369A.415.415,0,0,1,3.931,0Z" transform="translate(22.377 41.652) rotate(20)" fill="#173061"/></g></g></svg>